<?xml version="1.0" encoding="UTF-8" standalone="no"?>
<!DOCTYPE svg PUBLIC "-//W3C//DTD SVG 1.1//EN" "http://www.w3.org/Graphics/SVG/1.1/DTD/svg11.dtd">
<svg width="100%" height="100%" viewBox="0 0 1054 934" version="1.1" xmlns="http://www.w3.org/2000/svg" xmlns:xlink="http://www.w3.org/1999/xlink" xml:space="preserve" xmlns:serif="http://www.serif.com/" style="fill-rule:evenodd;clip-rule:evenodd;stroke-linejoin:round;stroke-miterlimit:2;">
    <g>
        <rect x="65.173" y="0" width="933.605" height="933.605" style="fill:#2d004b;"/>
        <path d="M15.26,692.42C16.901,690.451 17.476,688.318 16.983,686.02C16.491,683.723 15.425,681.508 13.784,679.375C12.143,677.242 10.01,675.354 7.384,673.714C4.759,672.073 2.297,670.76 0,669.775C5.579,666.822 9.681,664.196 12.307,661.899C14.932,659.602 16.491,657.551 16.983,655.746C17.476,653.941 17.23,652.382 16.245,651.069C15.26,649.756 14.112,648.608 12.799,647.623C26.255,626.619 37.331,608.816 46.028,594.211C54.724,579.607 61.534,567.629 66.457,558.275C71.38,548.922 74.743,541.866 76.548,537.108C78.353,532.349 79.256,528.985 79.256,527.016C78.928,522.75 74.169,524.883 64.98,533.416L127.499,432.992L150.143,393.118C149.159,396.071 147.682,400.01 145.713,404.932C143.744,409.855 141.939,414.778 140.298,419.701C138.657,424.623 137.508,429.136 136.852,433.238C136.196,437.34 136.852,439.884 138.821,440.868C140.134,441.525 142.923,440.458 147.19,437.669C151.456,434.879 156.871,429.546 163.435,421.67C169.998,413.793 177.711,403.127 186.572,389.672C195.432,376.216 205.278,359.315 216.108,338.968C198.058,379.334 186.654,410.922 181.895,433.73C177.136,456.539 176.562,471.717 180.172,479.266C175.249,479.594 170.819,480.907 166.881,483.204C162.942,485.501 159.743,488.291 157.281,491.572C154.82,494.854 153.261,498.054 152.605,501.172C151.948,504.29 152.277,506.833 153.589,508.802C148.995,515.694 143.744,525.129 137.836,537.108C131.929,549.086 126.268,560.819 120.853,572.305C115.438,583.792 110.761,593.719 106.823,602.088C102.885,610.456 100.588,614.805 99.931,615.133C94.352,615.789 90.25,617.594 87.625,620.548C84.999,623.502 83.03,626.455 81.717,629.409C83.686,629.737 86.476,629.901 90.086,629.901C93.696,629.901 97.306,628.917 100.916,626.948C105.182,624.65 108.628,622.107 111.254,619.317C113.879,616.528 115.848,613.82 117.161,611.195C118.474,608.241 119.458,605.452 120.115,602.826C132.914,599.216 146.369,595.606 160.481,591.996C172.624,589.043 186.407,585.925 201.832,582.643C217.257,579.361 233.009,576.572 249.09,574.274C243.511,577.228 239.163,579.771 236.045,581.905C232.927,584.038 230.794,585.843 229.645,587.32C228.497,588.796 228.087,589.945 228.415,590.766C228.743,591.586 229.399,592.324 230.384,592.981C224.805,594.293 220.292,596.016 216.846,598.15C213.4,600.283 210.693,602.498 208.724,604.795C206.427,607.421 204.786,610.046 203.801,612.672C200.191,613.328 195.925,614.313 191.002,615.625C186.736,616.938 181.485,618.743 175.249,621.04C169.014,623.338 161.63,626.291 153.097,629.901C152.441,628.589 151.128,627.85 149.159,627.686C147.19,627.522 145.056,627.768 142.759,628.424C140.462,629.081 138.247,629.983 136.114,631.132C133.98,632.281 132.75,633.347 132.421,634.332C120.279,638.598 107.398,644.013 93.778,650.577C80.158,657.14 67.606,663.54 56.119,669.775C42.664,676.995 29.044,684.544 15.26,692.42Z" style="fill:#ff4065;fill-rule:nonzero;"/>
        <path d="M310.624,424.131C313.578,426.757 316.86,428.726 320.47,430.038C323.423,431.351 326.951,432.418 331.054,433.238C335.156,434.059 339.833,433.977 345.083,432.992C338.52,437.587 332.12,443.002 325.885,449.237C332.12,448.252 338.684,447.104 345.576,445.791C352.468,444.478 357.719,443.494 361.329,442.837C359.688,448.417 359.359,452.601 360.344,455.39C361.329,458.18 363.134,459.739 365.759,460.067C368.384,460.395 371.584,459.493 375.358,457.359C379.132,455.226 382.989,451.862 386.927,447.268C384.629,454.488 381.758,463.841 378.312,475.327C374.866,486.814 371.256,499.203 367.482,512.494C363.708,525.785 360.016,539.323 356.406,553.107C352.796,566.89 349.678,579.689 347.053,591.504C344.427,603.318 342.458,613.738 341.145,622.763C339.833,631.788 339.668,637.942 340.653,641.224C337.699,637.942 334.418,637.121 330.808,638.762C327.198,640.403 323.423,643.521 319.485,648.115C315.547,652.71 311.691,658.207 307.917,664.607C304.143,671.006 300.697,677.406 297.579,683.805C294.461,690.205 291.754,696.194 289.457,701.773C287.159,707.352 285.518,711.455 284.534,714.08C289.785,682.903 290.933,661.899 287.98,651.069C285.026,640.239 279.611,640.403 271.735,651.561C269.109,648.936 265.171,647.459 259.92,647.131C254.669,646.803 249.418,647.131 244.167,648.115C238.26,649.428 231.697,651.233 224.477,653.53C240.229,642.044 252.536,629.737 261.397,616.61C270.258,603.483 277.642,588.386 283.549,571.321C278.627,569.023 272.473,567.957 265.089,568.121C257.705,568.285 250.731,570.172 244.167,573.782C235.307,583.628 225.789,594.458 215.616,606.272C205.442,618.087 195.925,629.081 187.064,639.254C178.203,649.428 170.737,658.043 164.665,665.099C158.594,672.155 155.23,676.011 154.574,676.667C154.574,676.339 154.82,674.616 155.312,671.498C155.804,668.381 155.887,665.591 155.558,663.13C155.23,660.668 154.164,659.356 152.359,659.191C150.554,659.027 147.518,661.571 143.251,666.822C138.657,672.401 132.339,680.113 124.299,689.959C116.259,699.804 108.3,709.485 100.424,719.003C91.235,730.161 81.389,741.811 70.887,753.954C70.231,750.344 67.934,749.36 63.996,751C62.355,751.657 60.221,752.97 57.596,754.939C54.971,756.908 51.771,759.861 47.997,763.8C44.223,767.738 39.792,772.66 34.705,778.568C29.618,784.475 23.629,791.859 16.737,800.72C17.394,797.11 22.48,788.495 31.998,774.876C41.515,761.256 53.658,744.765 68.426,725.402C83.194,706.039 99.849,684.626 118.392,661.161C136.934,637.696 155.558,614.313 174.265,591.012C166.06,592.653 156.543,595.114 145.713,598.396C134.883,601.678 123.232,606.108 110.761,611.687C120.279,606.108 128.073,600.775 134.144,595.688C140.216,590.601 145.221,586.089 149.159,582.151C153.425,577.884 157.035,573.782 159.989,569.844C163.271,569.516 166.717,569.023 170.327,568.367C173.608,567.711 177.382,567.054 181.649,566.398C185.915,565.742 190.674,565.085 195.925,564.429C211.349,545.723 225.953,527.837 239.737,510.771C253.521,493.706 265.663,478.773 276.165,465.974C288.636,450.878 300.123,436.93 310.624,424.131ZM252.044,555.076C260.577,553.435 268.289,552.04 275.181,550.891C282.073,549.743 287.159,548.84 290.441,548.184C293.395,537.026 296.184,525.047 298.81,512.248C301.435,499.449 304.389,485.337 307.671,469.912C301.435,477.461 295.364,485.255 289.457,493.295C283.549,501.336 278.134,509.13 273.212,516.678C268.289,524.227 264.023,531.365 260.413,538.092C256.803,544.82 254.013,550.481 252.044,555.076Z" style="fill:#ff4065;fill-rule:nonzero;"/>
        <path d="M373.635,484.188L472.09,443.33C470.777,446.94 471.105,449.401 473.075,450.714C474.715,452.027 477.997,452.519 482.92,452.191C487.843,451.862 495.883,449.401 507.041,444.807C497.524,456.621 490.468,465.892 485.874,472.62C481.279,479.348 478.079,484.845 476.274,489.111C474.469,493.377 473.649,497.234 473.813,500.68C473.977,504.125 474.059,508.474 474.059,513.725C471.434,518.648 468.48,524.145 465.198,530.216C461.916,536.287 458.552,542.441 455.107,548.676C451.661,554.912 448.297,560.901 445.015,566.644C441.733,572.387 438.944,577.228 436.646,581.166L547.408,474.835C553.315,467.287 557.171,460.641 558.976,454.898C560.781,449.155 558.402,444.971 551.838,442.345C562.996,440.048 573.826,437.751 584.328,435.453C593.189,433.484 602.132,431.187 611.157,428.562C620.182,425.936 627.484,423.311 633.063,420.685C633.063,425.936 633.884,429.874 635.525,432.5C637.166,435.125 639.463,437.258 642.416,438.899C637.166,444.15 629.535,453.503 619.526,466.959C609.516,480.414 598.44,494.69 586.297,509.787C580.39,517.335 575.96,523.816 573.006,529.231C570.052,534.646 568.165,539.159 567.345,542.769C566.524,546.379 566.524,549.415 567.345,551.876C568.165,554.337 569.396,556.224 571.037,557.537C566.114,564.101 560.371,572.716 553.807,583.381C547.244,594.047 540.352,605.944 533.132,619.071C525.912,632.199 518.446,646.064 510.733,660.668C503.021,675.272 495.555,689.63 488.335,703.742C471.27,736.889 453.548,772.496 435.169,810.566C430.903,813.519 426.801,816.473 422.863,819.426C419.253,822.052 403.828,834.031 400.218,836.656C402.515,833.374 406.125,826.893 411.048,817.211C415.971,807.53 421.468,796.29 427.539,783.49C433.611,770.691 439.682,757.318 445.753,743.37C451.825,729.422 457.158,716.541 461.752,704.727C466.347,692.912 469.875,683.067 472.336,675.19C474.797,667.314 475.372,663.048 474.059,662.391C471.762,661.735 468.234,662.884 463.475,665.837C458.717,668.791 454.04,672.237 449.445,676.175C443.866,680.769 437.959,686.349 431.724,692.912C436.646,682.739 442.061,672.237 447.969,661.407C452.891,651.889 458.635,641.388 465.198,629.901C471.762,618.415 478.49,606.928 485.381,595.442C493.914,580.674 500.396,568.695 504.826,559.506C509.257,550.317 511.8,543.097 512.456,537.846C507.205,544.41 501.873,551.055 496.457,557.783C491.042,564.511 486.53,569.188 482.92,571.813C481.279,569.516 478.49,569.434 474.551,571.567C470.613,573.7 466.183,576.982 461.26,581.412C456.337,585.843 451.168,591.012 445.753,596.919C440.338,602.826 435.252,608.487 430.493,613.902C425.734,619.317 421.714,624.076 418.432,628.178C415.15,632.281 413.181,634.66 412.525,635.316L412.525,635.809C410.884,635.48 408.915,635.48 406.618,635.809C404.649,636.465 402.269,637.367 399.48,638.516C396.69,639.665 393.654,641.716 390.373,644.669C389.716,641.716 388.239,638.598 385.942,635.316C383.645,632.034 381.184,629.081 378.558,626.455C375.276,623.174 371.83,620.056 368.22,617.102C370.189,613.82 371.666,610.703 372.651,607.749C373.307,605.123 373.307,602.662 372.651,600.365C371.994,598.068 369.861,596.427 366.251,595.442C377.409,575.751 386.927,559.178 394.803,545.723C402.679,532.267 407.52,521.601 409.325,513.725C411.13,505.848 409.407,500.597 404.156,497.972C398.905,495.347 388.896,495.018 374.128,496.987L373.635,484.188Z" style="fill:#ff4065;fill-rule:nonzero;"/>
        <path d="M716.257,614.149C724.79,619.728 731.026,625.225 734.964,630.64C738.902,636.055 741.363,641.059 742.348,645.654C740.379,648.279 739.148,650.987 738.656,653.776C738.164,656.566 737.917,659.109 737.917,661.407C737.917,663.704 738.082,665.673 738.41,667.314C738.738,668.955 738.902,670.268 738.902,671.252C736.277,670.268 731.6,670.432 724.872,671.744C718.145,673.057 710.842,674.698 702.966,676.667C695.09,678.636 687.624,680.687 680.568,682.821C673.512,684.954 668.343,686.677 665.061,687.989C660.795,682.082 654.231,674.862 645.37,666.329C636.509,657.797 627.32,649.264 617.803,640.731C613.536,638.762 608.696,635.973 603.281,632.363C597.866,628.753 592.615,624.979 587.528,621.04C582.441,617.102 577.929,613.492 573.991,610.21C570.052,606.928 567.427,604.467 566.114,602.826C564.801,601.185 564.309,598.478 564.637,594.704C564.966,590.93 566.114,586.499 568.083,581.412C570.052,576.326 572.924,570.911 576.698,565.167C580.472,559.424 585.313,553.763 591.22,548.184C602.706,537.354 610.829,528.575 615.588,521.847C620.346,515.12 619.608,512.248 613.372,513.233C624.859,502.731 638.314,493.788 653.739,486.404C669.163,479.02 683.767,472.046 697.551,465.482L706.904,465.482C710.186,465.482 713.14,465.072 715.765,464.251C718.391,463.431 720.524,462.118 722.165,460.313C723.806,458.508 724.462,455.965 724.134,452.683C727.744,454.98 731.354,457.113 734.964,459.082C737.917,461.052 741.035,463.103 744.317,465.236C747.599,467.369 750.552,469.584 753.178,471.882C755.803,474.507 758.183,476.148 760.316,476.804C762.449,477.461 764.336,477.625 765.977,477.297C767.946,476.968 769.915,476.312 771.884,475.327L776.315,475.327C777.956,475.656 779.679,475.984 781.484,476.312C783.289,476.64 785.504,477.625 788.129,479.266C797.647,477.297 805.441,477.132 811.512,478.773C817.584,480.414 822.424,482.712 826.034,485.665C829.644,488.619 832.27,491.655 833.911,494.772C835.552,497.89 836.864,499.941 837.849,500.926C835.552,502.238 832.516,505.192 828.742,509.787C824.968,514.381 822.26,519.386 820.619,524.801C818.978,530.216 819.225,535.303 821.358,540.061C823.491,544.82 829.152,548.02 838.341,549.661C826.527,549.661 812.907,549.907 797.483,550.399C782.058,550.891 766.059,551.794 749.486,553.107C732.913,554.419 716.093,556.388 699.028,559.014C681.962,561.639 665.882,565.249 650.785,569.844C660.631,565.249 670.312,560.819 679.829,556.553C688.034,552.943 696.484,549.333 705.181,545.723C713.878,542.113 721.508,539.323 728.072,537.354C741.199,533.416 749.65,529.806 753.424,526.524C757.198,523.242 757.28,520.288 753.67,517.663C755.311,517.335 757.69,515.776 760.808,512.986C763.926,510.197 766.962,507.079 769.915,503.633C772.869,500.187 775.33,496.577 777.299,492.803C779.268,489.029 780.253,485.993 780.253,483.696C774.346,485.993 768.356,488.783 762.285,492.065C756.214,495.347 750.306,498.546 744.563,501.664C738.82,504.782 733.405,507.817 728.318,510.771C723.231,513.725 718.719,516.186 714.781,518.155C709.858,517.827 705.92,518.976 702.966,521.601C700.012,524.227 699.356,527.344 700.997,530.954C687.542,537.846 675.563,545.64 665.061,554.337C654.559,563.034 645.78,571.895 638.724,580.92C631.669,589.945 626.171,598.642 622.233,607.011C618.295,615.379 616.162,622.845 615.834,629.409C626.664,635.973 634.868,639.419 640.447,639.747C646.026,640.075 648.488,638.106 647.831,633.839C649.472,635.152 653.903,635.234 661.123,634.086C668.343,632.937 675.973,631.214 684.014,628.917C692.054,626.619 699.274,624.076 705.674,621.286C712.073,618.497 715.601,616.118 716.257,614.149Z" style="fill:#ff4065;fill-rule:nonzero;"/>
        <path d="M825.05,669.283C823.409,666.001 821.276,664.771 818.65,665.591C816.025,666.412 813.481,668.627 811.02,672.237C808.559,675.847 806.261,680.359 804.128,685.774C801.995,691.189 800.764,696.686 800.436,702.265C797.811,697.343 794.529,696.03 790.591,698.327C786.653,700.624 782.796,704.152 779.022,708.911C775.248,713.67 771.802,718.428 768.685,723.187C765.567,727.946 763.68,730.489 763.023,730.817C773.525,709.157 780.991,692.42 785.422,680.605C789.852,668.791 792.56,660.094 793.544,654.515C794.857,647.951 794.529,643.849 792.56,642.208C796.17,636.629 799.78,630.558 803.39,623.994C806.672,618.415 810.2,612.015 813.974,604.795C817.748,597.575 821.604,590.191 825.542,582.643C812.087,581.987 798.877,580.92 785.914,579.443C772.951,577.966 759.906,576.243 746.778,574.274C758.593,574.603 771.72,574.438 786.16,573.782C800.6,573.126 815.697,571.977 831.449,570.336C837.028,557.865 841.377,546.625 844.495,536.615C847.612,526.606 847.858,519.796 845.233,516.186C847.202,516.843 850.238,514.545 854.34,509.294C858.442,504.043 862.134,497.726 865.416,490.342C868.698,482.958 870.585,475.163 871.077,466.959C871.57,458.754 869.19,451.862 863.939,446.283C864.268,445.627 864.514,444.642 864.678,443.33C864.842,442.017 865.088,440.868 865.416,439.884C865.744,438.571 865.909,437.422 865.909,436.438C867.878,438.735 870.175,441.032 872.8,443.33C874.769,445.299 877.149,447.514 879.938,449.975C882.728,452.437 885.599,454.98 888.553,457.606L900.368,427.085C913.167,424.131 927.689,423.064 943.934,423.885C960.179,424.705 975.767,426.839 990.7,430.284C1005.63,433.73 1018.68,438.325 1029.84,444.068C1040.99,449.811 1048.05,456.457 1051,464.005C1043.78,458.098 1037.38,453.914 1031.81,451.452C1026.22,448.991 1022.94,448.417 1021.96,449.729C1021.63,450.386 1022.94,451.698 1025.9,453.667C1028.85,455.637 1032.3,458.426 1036.24,462.036C1040.17,465.646 1043.87,470.159 1047.31,475.574C1050.76,480.989 1052.81,487.634 1053.46,495.511C1053.79,501.746 1052.4,508.228 1049.28,514.955C1046.16,521.683 1041.57,528.247 1035.5,534.646C1029.42,541.046 1022.04,546.953 1013.34,552.368C1004.65,557.783 995.048,562.296 984.546,565.906C984.546,561.639 981.593,559.834 975.685,560.491C969.778,561.147 962.066,565.249 952.549,572.798L942.703,575.259C944.344,578.869 946.969,583.381 950.579,588.796C954.19,594.211 957.964,599.134 961.902,603.565C965.84,607.995 969.614,611.359 973.224,613.656C976.834,615.954 979.46,615.625 981.1,612.672C981.757,613.656 983.234,616.2 985.531,620.302C987.828,624.404 991.274,628.26 995.869,631.87C1000.46,635.48 1006.45,637.86 1013.84,639.008C1021.22,640.157 1030.16,638.434 1040.66,633.839C1042.31,635.48 1043.62,636.629 1044.6,637.285C1045.59,637.942 1047.39,639.09 1050.02,640.731C1044.77,643.029 1037.63,647.131 1028.61,653.038C1019.58,658.945 1010.39,665.181 1001.04,671.744C991.684,678.308 983.07,684.626 975.193,690.697C967.317,696.768 961.902,700.953 958.948,703.25C944.836,690.779 934.417,679.047 927.689,668.052C920.961,657.058 915.3,647.951 910.705,640.731C914.644,636.137 914.972,633.593 911.69,633.101C908.408,632.609 904.798,634.66 900.86,639.254C900.204,638.926 899.219,637.121 897.906,633.839C896.594,630.558 895.363,626.455 894.214,621.533C893.066,616.61 892.163,611.031 891.507,604.795C890.85,598.56 891.014,592.324 891.999,586.089C887.076,592.653 881.743,599.626 876,607.011C870.257,614.395 864.35,621.779 858.278,629.163C852.207,636.547 846.3,643.685 840.556,650.577C834.813,657.469 829.644,663.704 825.05,669.283ZM998.33,513.233C997.674,507.982 994.802,503.469 989.715,499.695C984.628,495.921 978.229,492.803 970.517,490.342C962.804,487.88 954.272,486.24 944.918,485.419C935.565,484.599 926.294,484.352 917.105,484.681C917.761,487.306 918.91,489.521 920.551,491.326C922.192,493.131 924.325,493.706 926.95,493.049C919.402,508.802 911.936,522.75 904.552,534.893C897.168,547.035 891.999,556.388 889.045,562.952C904.142,560.327 918.418,557.373 931.873,554.091C945.329,550.809 957.061,547.035 967.071,542.769C977.08,538.503 984.875,533.908 990.454,528.985C996.033,524.063 998.658,518.812 998.33,513.233Z" style="fill:#ff4065;fill-rule:nonzero;"/>
        <path d="M296.954,356.444C283.443,353.289 275.505,352.366 275.505,347.917C275.505,345.068 279.862,344.005 284.225,344.005C290.48,344.005 297.998,345.717 300.786,350.172L329.494,344.316C326.694,333.595 310.073,318.821 285.632,318.821C257.773,318.821 244.575,329.805 244.575,344.886C244.575,365.593 269.71,372.827 283.329,375.485C296.058,377.971 300.787,378.863 300.787,383.002C300.787,385.972 297.222,387.908 292.108,387.908C287.259,387.908 279.692,386.639 273.194,380.141L242.121,387.512C248.546,398.811 261.785,413.092 287.971,413.092C321.237,413.092 331.717,396.895 331.717,384.869C331.717,370.03 322.584,362.428 296.955,356.444L296.954,356.444Z" style="fill:#fff;fill-rule:nonzero;"/>
        <path d="M401.88,321.003L401.88,352.273L368.529,352.273L368.529,321.003L338.706,321.003L338.706,410.909L368.529,410.909L368.529,377.457L401.88,377.457L401.88,410.909L431.703,410.909L431.703,321.003L401.88,321.003Z" style="fill:#fff;fill-rule:nonzero;"/>
        <path d="M510.04,321.003L467.594,321.003L436.061,410.909L466.878,410.909L471.405,398.01L506.229,398.01L510.755,410.909L541.573,410.909L510.04,321.003ZM479.08,376.14L488.817,348.395L498.554,376.14L479.08,376.14Z" style="fill:#fff;fill-rule:nonzero;"/>
        <path d="M587.106,321.003C587.106,321.003 545.875,321.003 545.875,321.003L545.875,410.909L587.106,410.909C606.503,410.909 636.569,404.134 636.569,365.994C636.569,327.853 606.503,321.003 587.106,321.003ZM581.675,385.725C581.675,385.725 575.698,385.725 575.698,385.725L575.698,346.187L581.675,346.187C592.925,346.187 605.849,348.974 605.849,365.994C605.849,383.014 592.925,385.725 581.675,385.725Z" style="fill:#fff;fill-rule:nonzero;"/>
        <path d="M673.567,385.726L673.567,375.8L717.175,375.8L717.175,353.93L673.567,353.93L673.567,346.187L720.86,346.187L720.86,321.003L643.744,321.003L643.744,410.91L723.77,410.91L723.77,385.726L673.567,385.726Z" style="fill:#fff;fill-rule:nonzero;"/>
        <path d="M804.849,378.946C811.731,373.948 815.939,366.082 815.939,353.967C815.939,326.831 794.844,321.003 769.822,321.003L731.852,321.003L731.852,410.909L761.675,410.909L761.675,386.929L769.822,386.929C772.613,386.929 775.355,386.856 778.025,386.69L790.892,410.909L821.83,410.909L804.849,378.946ZM776.66,361.746L761.675,361.746L761.675,346.188L776.66,346.188C783.879,346.188 786.589,349.994 786.589,353.967C786.589,357.94 783.879,361.746 776.66,361.746L776.66,361.746Z" style="fill:#fff;fill-rule:nonzero;"/>
    </g>
</svg>
